#!OML:ASF F:\VICON\USERDATA\INSTALL\rory3\rory3.ASF
:FULLY-SPECIFIED
:DEGREES
1952
root -3.64079 17.0214 8.97982 -723.478 -147.769 720.435
lowerback 8.17318 -0.290636 -3.07363
upperback -4.36668 -0.737148 0.904498
thorax -9.19464 -0.156722 2.81502
lowerneck -20.1461 -6.16496 -16.05
upperneck -7.80281 -5.92341 12.1819
head 1.61484 -2.7656 5.94684
rclavicle -4.67952e-014 4.32357e-015
rhumerus 86.8065 -29.4168 -36.7603
rradius 39.94
rwrist 12.0152
rhand -31.8521 -7.22735
rfingers 7.12502
rthumb -5.10589 -37.1458
lclavicle -4.67952e-014 4.32357e-015
lhumerus 92.8597 29.3878 37.3576
lradius 27.6059
lwrist -2.35015
lhand -19.3619 33.6364
lfingers 7.12502
lthumb 6.95576 63.5021
rfemur -12.8578 -2.16624 18.6912
rtibia 57.5998
rfoot -15.5331 6.72939
rtoes -2.1104
lfemur -14.5252 -1.64795 -17.1713
ltibia 52.9792
lfoot -17.2778 1.48079
ltoes -31.5351
1953
root -3.63956 16.9323 8.97144 -723.59 -147.725 720.322
lowerback 8.63809 -0.311822 -3.04369
upperback -4.29819 -0.775133 0.838769
thorax -9.39209 -0.173367 2.7409
lowerneck -19.836 -6.09645 -15.8145
upperneck -8.01899 -5.92547 12.0951
head 1.49805 -2.78307 5.88872
rclavicle 9.651e-014 1.2921e-014
rhumerus 87.0273 -29.6719 -37.1522
rradius 39.9988
rwrist 12.2645
rhand -31.7675 -7.41596
rfingers 7.12502
rthumb -5.0242 -37.3364
lclavicle 9.651e-014 1.2921e-014
lhumerus 92.7036 29.4345 36.9803
lradius 27.7091
lwrist -2.27343
lhand -19.6758 33.6001
lfingers 7.12502
lthumb 6.65284 63.4756
rfemur -12.9037 -2.51712 18.4658
rtibia 58.3485
rfoot -16.6084 7.65847
rtoes -2.77101
lfemur -14.4582 -1.56324 -17.2741
ltibia 53.4738
lfoot -18.5992 1.84008
ltoes -30.9941
1954
root -3.64086 16.851 8.96638 -723.745 -147.642 720.335
lowerback 9.11148 -0.372966 -2.87783
upperback -4.26315 -0.845782 0.83442
thorax -9.62965 -0.211635 2.66248
lowerneck -19.8361 -6.08941 -15.7578
upperneck -7.92446 -5.92358 12.0427
head 1.52255 -2.78245 5.86105
rclavicle 8.4235e-015 8.64713e-015
rhumerus 87.2302 -29.8509 -37.276
rradius 39.8871
rwrist 12.1535
rhand -32.0074 -7.51648
rfingers 7.12502
rthumb -5.25583 -37.4313
lclavicle 8.4235e-015 8.64713e-015
lhumerus 91.9918 29.7215 35.8817
lradius 28.0127
lwrist -1.48849
lhand -19.9196 33.4724
lfingers 7.12502
lthumb 6.41746 63.3552
rfemur -12.9857 -3.0499 18.3497
rtibia 59.0397
rfoot -17.5576 8.31809
rtoes -4.26011
lfemur -14.4436 -1.44168 -17.2623
ltibia 53.9318
lfoot -19.6266 2.18939
ltoes -31.2744
1955
root -3.6441 16.7878 8.95799 -723.685 -147.598 720.153
lowerback 9.38223 -0.404224 -2.95155
upperback -4.19983 -0.900293 0.842284
thorax -9.71562 -0.230195 2.72604
lowerneck -19.9007 -6.00671 -15.8551
upperneck -8.19486 -5.80649 12.0847
head 1.43753 -2.73002 5.90589
rclavicle 4.54099e-014 4.57205e-015
rhumerus 87.3649 -30.1227 -37.1671
rradius 39.7512
rwrist 11.9875
rhand -32.1259 -7.74022
rfingers 7.12502
rthumb -5.37029 -37.6522
lclavicle 4.54099e-014 4.57205e-015
lhumerus 91.4327 29.9835 35.1876
lradius 28.3478
lwrist -0.856462
lhand -20.185 33.4746
lfingers 7.12502
lthumb 6.1612 63.365
rfemur -13.177 -3.55661 18.0765
rtibia 59.624
rfoot -18.2475 8.88196
rtoes -4.59112
lfemur -14.5052 -1.30128 -17.4426
ltibia 54.3213
lfoot -20.4362 2.63222
ltoes -31.6399
1956
root -3.64798 16.7415 8.94593 -723.489 -147.582 719.972
lowerback 9.46258 -0.414146 -3.09527
upperback -4.16173 -0.930068 0.878246
thorax -9.7173 -0.233736 2.85196
lowerneck -19.7519 -5.88475 -15.8554
upperneck -8.74838 -5.69617 11.9433
head 1.22575 -2.69748 5.88369
rclavicle -7.47803e-014 -6.85807e-015
rhumerus 87.3994 -30.4186 -36.9896
rradius 39.7198
rwrist 11.9006
rhand -32.1593 -7.74941
rfingers 7.12502
rthumb -5.40258 -37.6605
lclavicle -7.47803e-014 -6.85807e-015
lhumerus 91.2732 30.0123 35.2348
lradius 28.5629
lwrist -0.635808
lhand -20.7862 33.4452
lfingers 7.12502
lthumb 5.58081 63.3517
rfemur -13.4577 -3.9869 17.8672
rtibia 60.0837
rfoot -18.7423 9.29591
rtoes -3.34826
lfemur -14.682 -1.2141 -17.6208
ltibia 54.6379
lfoot -21.0534 3.05467
ltoes -31.5585
1957
root -3.64816 16.7105 8.93107 -723.364 -147.624 720.066
lowerback 9.45626 -0.452333 -3.08565
upperback -4.19572 -0.97329 0.972492
thorax -9.74667 -0.25121 2.95587
lowerneck -19.6385 -5.78481 -15.8112
upperneck -8.98578 -5.60214 11.8235
head 1.11817 -2.66319 5.85301
rclavicle 8.65956e-014 1.5207e-014
rhumerus 87.6441 -30.4345 -37.4336
rradius 39.8112
rwrist 12.0505
rhand -32.1966 -7.46831
rfingers 7.12502
rthumb -5.43855 -37.3785
lclavicle 8.65956e-014 1.5207e-014
lhumerus 90.8897 30.0873 34.8935
lradius 28.7725
lwrist -0.327639
lhand -21.3451 33.5555
lfingers 7.12502
lthumb 5.04113 63.4755
rfemur -13.7488 -4.33855 17.9943
rtibia 60.3792
rfoot -19.1382 9.46219
rtoes -2.37006
lfemur -14.9422 -0.998066 -17.4743
ltibia 54.8917
lfoot -21.5269 3.13872
ltoes -31.2351
1958
root -3.64472 16.6928 8.91325 -723.145 -147.773 720.005
lowerback 9.37831 -0.436477 -3.2483
upperback -4.25524 -0.971662 1.00715
thorax -9.76446 -0.238567 3.08426
lowerneck -19.4996 -5.74051 -15.9929
upperneck -9.06881 -5.52314 12.0677
head 1.08107 -2.61692 5.97202
rclavicle 3.27995e-015 -2.37548e-014
rhumerus 87.6478 -30.5556 -37.4216
rradius 39.7822
rwrist 11.5778
rhand -32.117 -7.21602
rfingers 7.12502
rthumb -5.3617 -37.1282
lclavicle 3.27995e-015 -2.37548e-014
lhumerus 90.3726 30.2018 34.2259
lradius 28.9563
lwrist 0.0502878
lhand -21.3006 33.6053
lfingers 7.12502
lthumb 5.08412 63.5243
rfemur -13.9816 -4.51862 18.0249
rtibia 60.5066
rfoot -19.5758 9.43272
rtoes -2.87982
lfemur -15.163 -0.668305 -17.4365
ltibia 55.0747
lfoot -21.8943 2.88761
ltoes -30.7089
